<?xml version="1.0" encoding="utf-8"?>
<!-- Uploaded to: SVG Repo, www.svgrepo.com, Generator: SVG Repo Mixer Tools -->
<!DOCTYPE svg PUBLIC "-//W3C//DTD SVG 1.1//EN" "http://www.w3.org/Graphics/SVG/1.1/DTD/svg11.dtd">
<svg fill="#000000" width="800px" height="800px" viewBox="0 0 1000 1000" version="1.1" xmlns="http://www.w3.org/2000/svg" xmlns:xlink="http://www.w3.org/1999/xlink"  enable-background="new 0 0 1000 1000" xml:space="preserve">

<g>
<g transform="translate(0.000000,477.000000) scale(0.100000,-0.100000)">
<path d="M4814.4,4301.1c-239.2-86.1-396.2-298.6-511-696.6c-51.7-181.8-107.2-514.8-107.2-652.6v-86.1l-176.1-11.5c-97.6-7.6-748.3-42.1-1444.9-78.5l-1265-67l-93.8,47.8c-214.3,112.9-509.1,137.8-742.6,65.1c-105.3-32.5-149.3-59.3-231.6-139.7C91,2528.9,60.4,2373.9,150.3,2194c32.5-65.1,82.3-122.5,139.7-164.6c139.7-103.3,245-128.2,566.5-139.7l287.1-9.6l76.6-97.6c91.9-114.8,369.4-329.2,543.5-421c256.5-134,715.8-241.2,1150.2-271.8l181.8-13.4l99.5-93.8c103.3-95.7,252.6-178,365.5-199c32.5-5.7,61.3-21.1,61.3-34.4c0-11.5-30.6-568.4-68.9-1236.3c-40.2-667.9-65.1-1238.3-59.3-1267c7.7-30.6,36.4-65.1,67-80.4c49.8-24.9,2139.7-654.5,2243-675.6c76.6-15.3,172.2,74.6,172.2,158.9c0,126.3-7.7,128.2-1100.5,453.6c-556.9,166.5-1025.8,306.2-1041.1,312c-19.1,5.7-23,32.5-15.3,109.1c5.7,53.6,26.8,373.2,44,708.1c19.1,333,40.2,606.7,45.9,606.7s28.7-28.7,51.7-65.1c89.9-137.8,338.7-419.1,478.5-539.7c298.5-254.5,658.4-463.1,759.8-436.3c99.5,24.9,155,147.3,107.2,237.3c-11.5,21.1-90,72.7-176.1,116.8c-455.5,237.3-868.9,671.8-1123.4,1178.9c-72.7,145.4-72.7,141.6-21.1,968.4c21.1,357.9,30.6,625.8,21.1,650.7c-45.9,120.6-218.2,137.8-285.2,30.6c-15.3-24.9-34.5-191.4-49.8-449.8c-13.4-225.8-30.6-415.3-36.4-423c-26.8-24.9-197.1,86.1-260.3,168.4c-34.5,45.9-82.3,93.8-105.3,105.3c-21,11.5-147.4,26.8-279.4,34.4c-558.8,26.8-964.6,139.7-1257.4,348.3c-145.4,103.3-331.1,283.2-331.1,321.5c0,15.3-17.2,45.9-36.4,70.8c-36.4,44-47.8,45.9-398.1,55.5c-315.8,9.6-369.4,15.3-436.4,49.8c-103.3,53.6-128.2,124.4-67,189.5c55.5,59.3,147.4,86.1,296.6,86.1c147.4,0,225.8-23,344.5-97.6l95.7-61.2l1569.3,80.4c863.1,44,1588.5,84.2,1611.5,90c53.6,9.6,120.6,80.4,120.6,126.3c0,44,3.8,44,86.1-11.5c109.1-74.6,252.6-114.8,411.5-114.8s302.4,40.2,411.5,114.8c38.3,24.9,70.8,45.9,74.6,45.9c3.8,0,11.5-26.8,19.1-57.4c7.7-42.1,28.7-65.1,72.7-86.1c47.8-19.1,451.7-45.9,1642.1-107.2l1578.9-80.4l95.7,61.2c116.7,74.6,197.1,97.6,344.5,97.6c149.3,0,241.1-26.8,296.7-86.1c61.2-65.1,36.4-135.9-67-189.5c-67-34.5-120.6-40.2-436.4-49.8c-350.2-9.6-361.7-11.5-398.1-55.5c-19.1-24.9-36.4-55.5-36.4-70.8c0-38.3-185.6-218.2-331.1-321.5c-292.8-208.6-689-317.7-1282.3-352.1c-290.9-17.2-327.3-32.5-350.2-149.3c-9.6-45.9,0-70.8,42.1-122.5l53.6-63.2l269.8,11.5c474.6,21.1,951.2,126.3,1236.3,273.7c174.2,91.9,451.7,306.2,543.5,421l76.6,97.6l287.1,9.6c321.5,11.5,426.8,36.4,566.5,139.7c57.4,42.1,107.2,99.5,139.7,164.6c89.9,179.9,59.3,334.9-91.9,488c-128.2,126.3-281.3,179.9-516.7,179.9c-189.5-1.9-292.8-23-440.2-97.6l-112.9-55.5l-1265,67c-696.6,36.4-1345.4,70.8-1441.1,78.5l-178,11.5v86.1c0,260.3-107.2,721.5-220.1,955C5417.2,4249.4,5109.1,4406.4,4814.4,4301.1z M5109.1,3977.7c126.3-59.3,256.4-323.4,313.9-639.2c23-122.5,21.1-128.2-32.5-227.7c-65.1-118.7-143.5-183.7-269.8-222c-166.5-51.7-352.2,3.8-463.2,139.7c-93.8,114.8-109.1,185.6-68.9,361.7C4695.7,3876.2,4881.3,4086.8,5109.1,3977.7z"/>
<path d="M6077.5,2039c-23-9.6-55.5-38.3-70.8-63.2c-26.8-40.2-17.2-271.8,122.5-2637.3c82.3-1425.8,155-2644.9,160.8-2710l9.6-120.6h-237.3H5823v340.7c0,300.5-3.8,346.4-36.4,400c-45.9,74.6-128.2,97.6-208.6,55.5c-30.6-15.3-61.3-44-68.9-59.3c-5.7-17.2-11.5-191.4-11.5-384.7v-352.2h-160.8h-162.7l-5.7,438.3c-5.7,434.4-5.7,440.2-51.7,488c-65,68.9-168.4,68.9-233.5,0c-45.9-47.9-45.9-53.6-51.7-488l-5.7-440.2l-156.9,5.7l-156.9,5.7l-9.6,532c-9.6,505.3-11.5,534-47.8,560.8c-59.3,44-116.7,51.7-174.2,22.9c-97.6-45.9-103.3-78.5-103.3-622v-503.3h-239.2h-239.2l9.6,99.5c17.2,166.5,67,979.9,67,1085.1c0,80.4-9.6,109.1-47.8,145.4c-88,90-246.9,36.4-267.9-91.9c-3.8-34.5-23-281.3-38.3-549.3c-15.3-267.9-34.4-534-40.2-587.5l-9.6-101.4h-275.6c-258.4,0-277.5-1.9-323.4-42.1c-34.5-32.5-84.2-160.7-193.3-488l-147.4-445.9H1335c-765.5,0-1111.9-5.7-1144.5-21c-99.5-45.9-114.8-166.5-34.5-248.8l55.5-55.5H5000h4788.4l55.5,55.5c80.4,82.3,65.1,202.9-34.4,248.8c-32.5,15.3-378.9,21-1144.5,21H7568.4L7421-4022.2c-109.1,327.3-158.8,455.5-193.3,488c-45.9,40.2-65.1,42.1-323.4,42.1h-273.7l-11.5,118.7c-7.6,67-80.4,1291.8-164.6,2723.4l-151.2,2602.8l-59.3,53.6C6182.8,2060,6148.3,2067.7,6077.5,2039z M7107.1-4117.9c53.6-166.5,103.4-313.9,109.1-325.4c5.7-19.1-445.9-24.9-2216.2-24.9s-2222,5.7-2216.2,24.9c5.7,11.5,55.5,158.8,109.1,325.4l101.4,300.5H5000h2005.7L7107.1-4117.9z"/>
</g>
</g>
</svg>